<mxfile host="app.diagrams.net" modified="2024-02-06T21:29:50.032Z" agent="Mozilla/5.0 (Windows NT 10.0; Win64; x64) AppleWebKit/537.36 (KHTML, like Gecko) Chrome/119.0.0.0 Safari/537.36" version="23.1.1" etag="HZZHoOe9US_Q0QvTzWgS" type="github">
  <diagram name="第 1 页" id="AWbwlkMSs4ZvEU-qoVPq">
    <mxGraphModel>
      <root>
        <mxCell id="0" />
        <mxCell id="1" parent="0" />
      </root>
    </mxGraphModel>
  </diagram>
</mxfile>
